<svg version="1.1" id="Layer_1" xmlns="http://www.w3.org/2000/svg" xmlns:xlink="http://www.w3.org/1999/xlink" x="0px" y="0px"
	 width="100%" viewBox="0 0 498 501" enable-background="new 0 0 498 501" xml:space="preserve">
<path fill="#000000" opacity="1.000000" stroke="none" 
	d="
M219.000000,502.000000 
	C147.333344,502.000000 76.166649,501.968536 5.000224,502.096405 
	C1.575795,502.102570 0.903045,501.423798 0.905304,498.000000 
	C1.013748,333.666779 1.013741,169.333450 0.905336,5.000233 
	C0.903078,1.576903 1.575834,0.903007 4.999891,0.905282 
	C168.333115,1.013830 331.666412,1.013817 494.999664,0.905345 
	C498.422729,0.903072 499.096985,1.575501 499.094727,4.999771 
	C498.986267,169.332993 498.986267,333.666290 499.094635,497.999542 
	C499.096893,501.422363 498.425262,502.100250 495.000275,502.095764 
	C403.166962,501.975494 311.333466,502.000000 219.000000,502.000000 
z"/>
<path fill="#E0226D" opacity="1.000000" stroke="none" 
	d="
M112.695938,179.766037 
	C113.079239,179.956055 113.483063,180.042435 113.689514,180.045166 
	C116.296928,181.241623 118.991112,181.557678 121.756187,182.771179 
	C122.060455,182.970108 122.003166,182.988831 122.012512,182.960175 
	C124.224678,184.931900 126.990311,186.030426 129.755951,187.770325 
	C130.038589,187.958832 130.011139,188.003342 130.016113,187.978394 
	C130.216370,188.211548 130.433350,188.449890 130.855804,188.825943 
	C131.039536,188.983444 130.997070,189.002289 131.007019,188.981293 
	C131.216232,189.212326 131.433670,189.447540 131.850800,189.823578 
	C132.032333,189.981201 131.998245,190.001221 132.008240,189.984161 
	C132.219086,190.216171 132.436829,190.449463 132.855560,190.820190 
	C133.039642,190.973389 133.007034,190.991989 133.026123,190.980072 
	C138.264679,198.960510 139.345413,207.788086 139.097702,217.154602 
	C138.724533,231.266037 138.938126,245.394699 139.012115,259.963928 
	C138.924240,265.604767 141.283264,269.362518 145.750488,271.869415 
	C147.379639,272.783661 148.585571,274.058655 149.449661,275.722168 
	C153.569229,283.653015 151.166595,287.926453 141.616135,288.965027 
	C137.586044,290.105560 135.065613,287.730164 132.683929,285.887451 
	C123.531738,278.806335 118.383087,269.599182 118.481979,257.736053 
	C118.603981,243.099670 118.525925,228.461929 118.465790,213.825180 
	C118.452347,210.552567 118.533783,207.261810 116.777962,204.178497 
	C114.442665,200.077621 110.324112,199.710037 106.498421,199.135757 
	C103.701050,198.715836 102.792976,197.343338 102.593369,194.955734 
	C102.399162,192.632797 102.464424,190.298721 102.517586,187.971817 
	C102.681671,180.789886 103.312843,180.184921 111.061996,179.861557 
	C111.760162,179.718048 112.036392,179.647034 112.695938,179.766037 
z"/>
<path fill="#CF3174" opacity="1.000000" stroke="none" 
	d="
M140.729858,287.607605 
	C143.603851,286.555237 147.559341,288.381409 148.575272,284.491028 
	C149.622192,280.482025 148.215714,276.667908 144.858383,273.928680 
	C140.977890,270.762604 137.016403,267.697693 138.078094,261.370667 
	C138.213852,260.818726 138.337540,260.691772 138.717621,260.494293 
	C139.145569,260.468353 139.317139,260.512909 139.668640,260.753296 
	C141.188049,265.472015 143.957291,268.757507 148.568512,270.900787 
	C150.414490,271.790100 152.028671,271.489075 153.908676,271.184326 
	C154.445480,270.656158 154.622162,270.270355 154.612457,269.531036 
	C154.441696,269.026764 154.354477,268.830780 154.102798,268.355774 
	C152.884537,266.960999 152.402634,265.392029 150.779099,264.601013 
	C150.468735,264.720215 150.291718,264.691589 150.280060,264.602692 
	C150.012619,261.213776 147.339783,259.108795 146.178482,256.173035 
	C142.242325,246.222443 144.247955,237.053955 152.579742,230.184830 
	C154.724533,228.416565 156.892212,226.719513 157.313080,223.967224 
	C156.904343,224.035324 157.136642,224.081451 157.112045,224.197296 
	C156.952255,225.123077 157.203003,225.324463 158.156830,224.489716 
	C158.585571,223.933029 158.754669,223.713242 159.247833,223.243988 
	C161.212036,222.209442 162.870697,222.906174 164.488571,223.041611 
	C167.451599,223.289642 168.809677,225.381470 167.786163,227.920242 
	C166.716187,230.574219 166.790344,233.061859 167.079193,235.707535 
	C167.270630,237.461121 166.420532,238.853607 165.585342,240.340652 
	C163.411026,244.211990 161.007874,248.154419 164.808212,252.475266 
	C165.487991,253.248169 165.564682,254.325241 165.458359,255.334122 
	C165.120941,258.536102 165.340454,261.634186 166.748352,264.606232 
	C167.252594,265.670685 167.209824,266.908234 167.030838,268.056885 
	C166.083359,274.137115 167.098373,280.004181 168.732422,285.841919 
	C169.344116,288.027161 169.078079,290.143982 166.670868,291.791962 
	C158.922089,291.649292 151.540283,292.909454 144.240250,291.129730 
	C142.386520,290.677795 140.649887,290.412384 140.729858,287.607605 
z"/>
<path fill="#B5748F" opacity="1.000000" stroke="none" 
	d="
M344.627625,290.791748 
	C348.734680,292.142548 352.202118,288.961639 356.285980,290.779327 
	C358.354004,291.699738 359.211029,292.164917 359.024078,294.246643 
	C358.994415,294.576752 359.139282,294.970825 359.005829,295.235840 
	C357.777069,297.676331 361.758484,302.036469 356.664642,302.873657 
	C348.410370,304.230286 347.044312,303.358948 345.008911,296.865173 
	C344.682861,295.825073 344.648285,294.940918 343.276581,295.075745 
	C342.142731,295.187134 342.098206,296.018250 342.052246,296.853088 
	C342.024811,297.351379 342.026703,297.851440 342.021698,298.350769 
	C342.005249,299.989807 342.443787,302.103271 340.601379,302.762726 
	C338.081360,303.664673 338.369995,300.422089 336.389771,299.301910 
	C335.047333,303.890839 331.266937,303.450531 327.872192,302.831085 
	C324.528809,302.221008 321.576538,300.370087 317.963745,302.760590 
	C316.488434,303.736755 313.782898,302.656250 313.471588,305.816376 
	C313.374207,306.804810 312.049164,307.128418 310.981934,306.895905 
	C309.958405,306.672943 308.801392,305.953125 309.034851,305.004883 
	C309.729584,302.183289 307.173065,299.645782 308.529846,296.840088 
	C309.055511,295.753021 309.490875,294.470520 307.758514,294.152435 
	C306.173828,293.861481 305.325104,294.912598 305.111145,296.399597 
	C304.993561,297.216705 305.055878,298.061005 305.053680,298.893097 
	C305.049194,300.576385 305.133698,302.413666 302.981598,302.833466 
	C300.825195,303.254120 300.201935,301.562195 299.546051,299.540192 
	C297.271729,304.174622 292.681244,303.906891 289.727722,302.708344 
	C286.369171,301.345398 284.067963,302.209045 281.398254,303.246613 
	C277.301941,304.838745 274.519775,303.146851 273.362396,299.436737 
	C272.251770,295.876434 272.251709,292.119293 276.918396,290.567871 
	C277.071869,290.516846 277.238831,290.300842 277.342560,290.334961 
	C283.672241,292.417297 290.247559,289.502258 296.560547,291.268311 
	C298.273651,291.747559 299.925690,292.714172 299.175507,295.302521 
	C300.572083,289.952820 302.204681,289.202515 309.518982,290.804077 
	C311.204742,290.061890 312.736481,290.710266 314.500214,290.328430 
	C316.395660,290.526031 318.444885,290.343750 319.401550,291.279022 
	C321.944672,293.765137 324.028625,292.698944 326.627869,291.046478 
	C328.328796,290.212616 329.786163,290.580109 331.607208,290.728882 
	C334.948395,290.176788 335.278046,292.768158 336.417175,294.460388 
	C337.124725,293.346710 337.025238,291.830170 338.636230,291.034119 
	C340.672150,290.139130 342.475342,290.607849 344.627625,290.791748 
z"/>
<path fill="#816291" opacity="1.000000" stroke="none" 
	d="
M228.419022,284.700104 
	C223.171738,283.047089 219.066818,280.262756 216.236282,275.713226 
	C208.771362,263.714844 214.865479,248.705856 229.534134,244.024353 
	C230.154327,244.072632 230.394867,244.140991 230.984283,244.349365 
	C234.671600,246.011826 234.182312,248.728531 233.610657,251.543991 
	C233.254486,253.298264 232.808853,255.001419 231.918350,256.947876 
	C231.713181,259.198669 230.195938,260.530121 229.697800,262.628845 
	C229.463501,263.793945 229.401627,264.644958 229.605621,265.819275 
	C229.969955,268.221802 232.117004,269.374542 232.392395,271.832977 
	C231.683121,276.118774 234.172760,279.699158 233.436523,283.896912 
	C231.761948,284.790558 230.235840,284.345978 228.419022,284.700104 
z"/>
<path fill="#905A8D" opacity="1.000000" stroke="none" 
	d="
M221.666489,159.755005 
	C222.166260,159.982254 222.335159,160.001389 222.752625,160.077393 
	C225.892975,161.145416 227.778381,163.259399 226.752411,166.185135 
	C224.751678,171.890594 225.478134,177.695053 225.281174,183.474884 
	C225.148590,187.364975 224.882462,190.782791 220.448456,192.851410 
	C217.263367,194.337326 215.577728,198.218918 211.898956,199.983810 
	C207.366638,198.102127 206.685364,194.668182 206.974564,190.516922 
	C207.308258,185.727158 206.318985,185.051987 201.207123,186.072052 
	C200.069565,185.976151 199.446487,185.618408 199.026306,184.558899 
	C201.455750,180.313644 205.195770,177.763626 208.669128,174.473526 
	C207.898682,169.036362 209.666229,164.368286 211.694214,159.443115 
	C212.776093,159.149841 213.561874,159.107407 214.735809,159.137939 
	C217.167511,159.821915 219.271408,159.317337 221.666489,159.755005 
z"/>
<path fill="#5876A3" opacity="1.000000" stroke="none" 
	d="
M313.743469,244.846222 
	C314.128082,244.976349 314.562836,245.075424 314.772980,245.149872 
	C315.453247,245.550201 315.929352,245.862701 316.807678,245.899246 
	C325.701233,249.024475 333.774750,265.095520 325.857422,274.678467 
	C325.662354,275.225189 325.550385,275.397125 325.227295,275.793030 
	C325.016144,276.016998 325.000000,276.000000 325.007996,276.008423 
	C321.600708,278.578979 318.878998,282.194824 313.936951,283.031311 
	C307.838867,280.899750 307.247681,279.527710 310.127930,274.385193 
	C311.121796,271.156647 314.823883,270.818207 315.624390,267.750549 
	C317.530548,260.445496 313.336609,255.304169 305.744019,255.896698 
	C304.754272,255.973938 303.819702,256.408813 302.424469,256.270081 
	C299.285797,255.186646 297.725677,253.450150 298.537506,249.909424 
	C298.761414,249.241333 298.875732,248.984711 299.256165,248.405899 
	C303.746735,245.368011 308.326447,244.112091 313.743469,244.846222 
z"/>
<path fill="#AB4E82" opacity="1.000000" stroke="none" 
	d="
M198.692749,184.229309 
	C199.505417,184.405273 199.986771,184.631546 200.731049,184.910080 
	C204.237885,185.854385 204.919296,188.791031 203.746765,190.864944 
	C200.599518,196.431595 203.514801,201.864426 203.276230,207.686035 
	C203.223221,208.534012 203.148026,209.017426 203.083038,209.868378 
	C191.247726,220.590912 180.613541,232.180099 169.261978,243.029633 
	C167.487335,244.725754 165.656158,246.342758 165.735306,249.776367 
	C162.753525,250.497116 162.730148,248.820969 162.875519,246.778793 
	C163.140289,243.059143 165.427490,240.440765 167.706360,237.360458 
	C168.303986,236.398560 168.781570,235.834091 169.675232,235.188293 
	C170.944763,234.438492 171.666183,233.544144 172.882782,232.745346 
	C176.004471,229.086349 179.354172,226.108185 182.552124,223.005905 
	C185.882919,219.774765 187.258850,215.473297 189.524460,211.674225 
	C190.311768,210.354034 190.294922,208.418304 189.904007,206.790894 
	C189.482407,205.035751 188.997406,202.713684 187.511917,202.092575 
	C185.617310,201.300400 184.552353,203.631439 183.301224,204.875717 
	C179.896942,208.261429 176.270279,211.413727 172.873215,214.808472 
	C171.645264,216.035583 170.193344,216.765228 168.044342,216.144394 
	C167.530914,215.841446 167.348450,215.683273 167.017487,215.194717 
	C167.918533,211.350143 171.447403,210.252487 173.731491,207.949432 
	C181.749191,199.865189 189.328720,191.310516 198.692749,184.229309 
z"/>
<path fill="#746893" opacity="1.000000" stroke="none" 
	d="
M224.941284,160.442078 
	C229.860428,158.962906 234.131241,161.755875 238.794632,162.143585 
	C242.144577,162.422119 243.374664,166.170868 242.637070,169.563980 
	C241.109177,176.592804 239.176605,183.534744 237.698425,190.572922 
	C236.465622,196.442825 236.264847,202.576553 232.396515,207.902008 
	C230.704163,208.860962 229.225388,208.394348 227.416016,208.219009 
	C223.180618,205.196442 223.904816,200.713516 223.021759,196.434448 
	C224.864029,194.921585 226.140976,196.626266 228.010742,197.139618 
	C227.880386,192.396011 227.555862,187.966736 227.572418,183.533112 
	C227.584396,180.324722 228.628098,177.336548 229.011642,174.244980 
	C229.629990,169.260696 227.646957,164.830276 224.941284,160.442078 
z"/>
<path fill="#816291" opacity="1.000000" stroke="none" 
	d="
M206.292389,291.138824 
	C212.942947,294.659393 219.285675,298.010559 225.813416,301.674622 
	C226.055420,302.142914 226.207596,302.384155 226.155914,302.441406 
	C219.527695,309.786163 223.007767,318.837921 221.977692,327.123627 
	C221.936996,327.450928 221.888138,327.777130 221.626236,328.445709 
	C221.044189,329.499084 220.493011,330.049072 219.396545,330.581726 
	C211.561447,327.732147 205.055893,323.248077 199.145569,317.332367 
	C198.814026,314.299194 200.801239,314.828674 202.352554,314.844391 
	C205.662918,314.877960 206.379440,313.066956 205.504883,310.324585 
	C204.654602,307.658325 204.756454,305.213043 206.177673,302.740906 
	C207.457413,300.514893 206.946121,298.319794 205.617035,296.215240 
	C204.481812,294.417694 203.961288,292.583344 206.292389,291.138824 
z"/>
<path fill="#6B6D8F" opacity="1.000000" stroke="none" 
	d="
M278.430939,256.709198 
	C277.534088,261.847260 276.850708,266.828308 278.721252,271.950500 
	C280.792633,272.881012 282.636322,272.285889 284.728912,272.783447 
	C288.025482,274.797119 288.565643,277.443359 287.659454,280.566467 
	C286.745270,283.717010 284.385681,284.829498 281.348999,285.013214 
	C275.813995,285.348083 270.702362,284.614044 266.605164,280.264709 
	C265.327942,278.908875 264.824005,277.605743 264.993683,275.501495 
	C263.835510,269.376740 264.877563,263.562683 264.181274,257.410339 
	C260.034546,256.901855 257.436340,255.136658 256.972168,251.098633 
	C256.447540,246.534805 259.561584,245.007904 263.598328,244.016571 
	C265.076843,241.231705 264.184296,238.351746 264.768402,235.187012 
	C264.743256,233.619827 265.481964,232.901855 266.538422,232.078217 
	C268.946381,231.034607 271.170746,231.677292 273.774170,231.741119 
	C275.978577,232.429520 275.819153,234.424759 277.088928,235.723724 
	C277.797211,238.369263 277.311829,240.771255 277.754791,243.489059 
	C280.954224,244.272919 284.606140,242.875336 286.095825,247.284241 
	C287.189056,250.519638 287.861359,253.455582 284.417114,255.989349 
	C282.365173,257.017120 280.516724,256.231689 278.430939,256.709198 
z"/>
<path fill="#746893" opacity="1.000000" stroke="none" 
	d="
M219.973495,329.458984 
	C217.997009,321.738007 220.918396,314.292084 219.305618,306.837677 
	C218.478134,303.012970 223.019913,303.505859 225.684769,302.181366 
	C226.453308,302.005920 226.908203,302.024261 227.703598,302.068604 
	C228.216812,302.245270 228.389511,302.395905 228.850189,302.734283 
	C233.114746,303.018890 236.395584,305.642670 240.700867,306.040894 
	C241.555817,307.289520 240.782379,308.125122 239.941864,309.295654 
	C236.124817,310.628143 234.942947,312.798920 235.166260,316.627716 
	C235.526550,322.804474 235.191803,329.030823 233.569794,335.381622 
	C228.161346,335.229095 223.874039,332.937927 219.973495,329.458984 
z"/>
<path fill="#905A8D" opacity="1.000000" stroke="none" 
	d="
M206.595276,291.277466 
	C206.777359,292.257599 206.847794,293.245178 207.169556,294.142670 
	C207.380646,294.731506 208.184799,295.132355 208.331497,295.715912 
	C210.057083,302.579865 208.380051,309.439606 207.225540,316.045166 
	C206.399887,320.769226 202.200150,316.932343 199.243988,316.883667 
	C195.183731,315.603210 192.544327,312.722565 189.954163,309.410156 
	C195.769302,302.153320 195.482529,294.284912 193.476227,286.205322 
	C193.148026,284.883636 192.655075,283.709747 193.739960,282.217346 
	C197.988861,282.596313 199.186523,287.043976 202.852814,288.559753 
	C203.817856,289.868347 204.702469,290.803589 206.212234,291.319855 
	C206.529037,291.258270 206.590347,291.246674 206.595276,291.277466 
z"/>
<path fill="#BB366A" opacity="1.000000" stroke="none" 
	d="
M140.596283,287.218079 
	C142.569519,291.021881 146.239868,290.694489 149.334991,290.862305 
	C154.882736,291.163147 160.459808,290.923431 166.490204,290.895630 
	C167.803726,290.124146 168.647659,289.358673 170.321594,289.432556 
	C171.312042,289.500366 171.876450,289.557617 172.825684,289.816284 
	C173.689697,290.337311 174.020203,290.786865 174.103241,291.760254 
	C173.735153,292.281738 173.468643,292.386780 172.771545,292.495483 
	C167.146973,292.531464 161.952591,292.437103 156.361176,292.720764 
	C155.500900,292.920380 155.038284,292.948425 154.232849,292.911011 
	C151.496719,292.130280 149.053604,292.629639 146.312393,292.722260 
	C138.659073,291.407532 132.401947,288.258667 127.057266,282.727173 
	C121.815567,277.302216 119.116081,271.026184 117.861801,263.427979 
	C117.138504,247.341415 117.677834,231.649170 117.500679,215.961258 
	C117.478287,213.978531 117.541412,211.995132 117.290833,209.559433 
	C115.980629,202.487732 111.275528,200.461014 105.364914,199.982666 
	C103.890610,199.863358 101.826759,200.696671 101.903145,197.505615 
	C101.112946,193.026123 101.649010,188.927582 101.674271,184.391388 
	C102.150139,182.844742 101.704918,181.512238 102.935303,180.319611 
	C105.756584,179.036682 108.528824,179.650909 111.638535,179.852692 
	C110.902374,180.429443 109.808098,180.918640 108.684105,181.000641 
	C105.079308,181.263718 103.787033,183.303009 103.978767,186.667007 
	C104.035385,187.660431 103.994278,188.659576 103.993179,189.656097 
	C103.983650,198.287933 103.496605,197.166382 111.303009,199.082031 
	C115.936966,200.219193 119.194878,202.965302 119.493454,208.285690 
	C120.423714,224.863037 120.336288,241.457001 119.889832,258.032318 
	C119.540344,271.007324 126.227684,279.531799 136.027710,286.547668 
	C137.400208,287.530243 138.766144,287.567871 140.596283,287.218079 
z"/>
<path fill="#816291" opacity="1.000000" stroke="none" 
	d="
M224.705353,160.050079 
	C232.016678,164.830475 232.776581,171.112808 230.531113,178.782150 
	C229.140289,183.532455 229.780640,188.682465 230.413345,193.654678 
	C230.579895,194.963547 230.997833,196.381729 230.674988,197.581436 
	C230.048279,199.910294 229.839844,203.454788 227.408020,203.767670 
	C225.141830,204.059235 226.507294,200.420959 225.344254,198.883789 
	C224.748230,198.096008 224.203369,197.269501 223.364746,196.241653 
	C222.257126,194.261703 221.700806,192.266632 219.352417,194.953079 
	C216.654709,198.039139 213.609772,200.821671 210.428345,203.897217 
	C209.517395,204.536316 208.852524,204.615402 207.897827,204.001114 
	C207.580551,203.507706 207.508682,203.278214 207.473755,202.689789 
	C207.973450,201.172424 208.920319,200.411163 210.430206,199.307251 
	C220.028671,194.409515 223.697632,188.027649 222.805588,178.530777 
	C222.427673,174.507690 222.641357,170.544388 224.125580,166.771347 
	C225.007324,164.529907 224.926025,162.576248 223.195892,160.423004 
	C223.455994,160.086716 223.910797,160.039154 224.705353,160.050079 
z"/>
<path fill="#746893" opacity="1.000000" stroke="none" 
	d="
M233.381592,284.286682 
	C230.836197,280.568481 229.028122,276.937317 230.902054,272.276367 
	C231.791824,270.115845 233.517975,269.891113 235.057114,269.316711 
	C237.608963,268.364380 239.337753,266.653137 239.025604,263.739594 
	C238.734879,261.025848 236.778702,259.873291 234.288239,259.416840 
	C232.844315,259.152222 231.266129,259.143219 230.238617,257.302612 
	C229.557785,253.078720 233.696884,249.324615 230.314819,244.979630 
	C231.808228,242.692017 234.058746,243.747192 236.427338,243.740997 
	C239.404587,245.491608 242.316940,244.830490 245.528824,244.991547 
	C246.127075,244.842621 246.319366,244.699768 246.844910,244.691818 
	C248.260925,247.489777 246.575287,248.865387 244.641968,249.979630 
	C242.431198,251.253754 242.091537,252.768448 243.493423,254.874084 
	C249.107315,263.306183 248.496201,272.129059 244.782318,281.364624 
	C242.370377,282.254791 239.999695,282.313385 237.959229,284.253784 
	C236.326050,284.531799 235.030945,284.517792 233.381592,284.286682 
z"/>
<path fill="#905A8D" opacity="1.000000" stroke="none" 
	d="
M194.388702,273.121857 
	C192.586823,272.270172 191.445175,271.260895 190.885254,269.312042 
	C190.244522,262.653198 190.561417,256.295013 190.801178,249.523376 
	C191.389862,247.559311 191.439636,245.852890 193.513199,245.002075 
	C195.590927,244.043457 197.440872,244.656250 199.636917,244.774200 
	C200.040115,244.989670 200.520660,245.081085 200.755951,245.147919 
	C204.026855,246.858047 204.918549,249.038422 203.892090,252.581406 
	C202.036087,258.987793 203.161957,265.653961 202.960190,272.209656 
	C202.903641,274.046936 203.954575,276.536896 201.511703,277.483521 
	C199.147079,278.399811 198.206589,275.856506 196.722839,274.710388 
	C196.073227,274.208527 195.526611,273.573273 194.388702,273.121857 
z"/>
<path fill="#A05189" opacity="1.000000" stroke="none" 
	d="
M172.620728,292.333344 
	C173.125259,292.065857 173.308945,292.059814 173.768295,292.051941 
	C177.804932,289.854401 179.649872,293.499115 182.071121,294.894989 
	C185.266190,290.109528 183.447495,283.870087 187.678711,279.372620 
	C189.707443,278.881744 190.925461,280.068726 192.693665,280.762390 
	C193.028564,280.964813 193.000000,281.000000 193.013550,280.981995 
	C193.224060,281.209076 193.431732,281.444733 193.830566,281.822449 
	C194.011078,281.973938 194.005249,281.992340 194.015625,281.991089 
	C199.242325,289.185455 196.823318,297.037415 196.022095,304.766235 
	C195.679764,308.068451 193.235672,308.501526 190.337524,308.999939 
	C189.948441,309.046936 189.992599,309.027191 189.978210,309.046326 
	C188.869629,307.789398 187.625809,306.658783 186.232269,305.234924 
	C186.009094,305.013092 185.985825,305.013092 185.986176,305.001465 
	C184.976913,303.902985 183.882507,302.931366 182.204132,302.221741 
	C178.335083,300.019379 177.244797,295.375061 173.110626,293.419556 
	C172.725983,292.945526 172.512939,292.770172 172.620728,292.333344 
z"/>
<path fill="#517796" opacity="1.000000" stroke="none" 
	d="
M345.126862,284.232544 
	C338.615997,283.037415 333.227539,277.092529 331.963593,269.520264 
	C331.018250,266.378357 331.669891,263.539734 331.752686,260.313049 
	C332.927185,250.610306 338.790436,246.043182 347.641296,243.905319 
	C349.679077,243.221405 351.395752,243.600357 353.505432,243.592010 
	C354.970093,246.337234 357.685577,244.958282 359.538208,245.782776 
	C365.673218,248.513107 369.235107,252.984985 370.838623,259.839111 
	C366.676971,261.519348 365.525238,258.139313 363.979248,255.891708 
	C359.307068,249.099213 353.737457,247.121582 345.883789,250.162430 
	C344.922180,250.790314 344.087189,251.006149 343.374634,251.952850 
	C343.042542,252.363403 342.899658,252.520508 342.520874,252.891296 
	C341.629791,253.614212 340.903320,254.018188 339.961273,254.661926 
	C338.224792,255.100784 337.668213,256.106476 337.535431,257.808868 
	C334.319397,268.706146 339.190979,278.293365 349.118011,280.236816 
	C358.650177,281.222443 362.821991,276.314636 366.468750,267.328094 
	C367.388641,265.061340 367.282898,262.273590 370.773773,261.705200 
	C371.885956,263.472260 371.291718,265.248779 371.730438,267.284119 
	C369.527222,275.317444 365.641388,281.772003 357.588135,284.715607 
	C356.997711,284.931427 356.304718,284.866730 355.274414,284.882812 
	C351.788361,284.073334 348.625549,284.761749 345.126862,284.232544 
z"/>
<path fill="#517796" opacity="1.000000" stroke="none" 
	d="
M239.237854,308.405396 
	C239.639847,307.487732 240.171387,306.982727 240.901505,306.281921 
	C244.528900,306.391479 247.638184,308.366913 251.607574,308.090027 
	C259.045227,308.889465 266.084900,308.354858 273.525818,308.289551 
	C274.099792,308.074188 274.263855,308.020264 274.686035,307.943634 
	C277.613617,307.079956 280.352295,307.670532 283.499939,307.626953 
	C292.441650,308.252228 297.591248,313.342590 300.216003,320.796906 
	C302.623413,327.634094 300.629211,333.758209 295.526825,339.114410 
	C292.439392,342.355438 288.905060,344.131653 284.286682,344.885681 
	C277.212982,344.090149 270.508484,344.652893 263.404602,344.702087 
	C262.824829,344.869720 262.654480,344.882233 262.236023,344.830658 
	C260.713989,343.915283 259.115601,343.573639 257.944489,341.938416 
	C257.575806,340.768433 257.663086,339.986664 258.240204,338.899963 
	C260.467682,336.968201 262.441589,337.572144 264.318634,338.734497 
	C266.138153,339.861206 268.038513,340.682037 270.553772,340.933563 
	C275.865814,340.366150 280.916901,341.032196 285.751862,339.420868 
	C294.317444,336.566315 298.270844,325.526886 293.374359,318.155365 
	C291.620911,315.515625 289.307465,314.016785 286.151337,313.365387 
	C280.528717,312.204926 274.952423,312.222565 268.946594,313.096985 
	C265.312408,312.850098 262.256287,315.145935 258.515167,313.702454 
	C253.975677,312.352661 249.539581,312.592163 245.023926,311.102783 
	C242.517166,311.121399 240.618851,310.719971 239.237854,308.405396 
z"/>
<path fill="#487CAB" opacity="1.000000" stroke="none" 
	d="
M386.270996,269.961182 
	C376.022766,267.346375 373.023438,259.917236 375.977661,251.811020 
	C377.401825,247.903183 380.176636,245.679245 384.601440,244.907883 
	C389.352356,244.133102 393.759583,244.622772 398.593262,244.727768 
	C403.355957,247.834885 402.729706,251.626785 400.563507,255.820374 
	C397.205322,257.054993 394.070404,256.203186 390.612305,256.707855 
	C388.153107,258.780914 389.523499,259.841766 391.336212,259.944092 
	C396.898193,260.257965 399.607819,263.960114 401.975555,268.611206 
	C402.993378,270.984833 402.319305,273.115295 402.283386,275.607483 
	C401.835114,280.581146 398.317749,282.200409 394.601685,284.025787 
	C393.536011,284.028229 392.802948,283.964386 391.886322,283.344299 
	C390.776642,280.020142 393.419586,278.627472 394.851776,276.800690 
	C397.961823,272.833740 397.624268,268.736603 393.541443,265.778198 
	C391.625977,264.390289 389.435516,263.648102 387.128174,263.165100 
	C383.980591,262.506226 382.732941,260.385468 383.006775,257.322205 
	C383.274414,254.328384 385.182770,253.045670 388.006989,252.768692 
	C389.820801,252.590820 391.679413,252.736496 393.437408,252.135727 
	C394.236969,251.862503 395.029053,251.419388 395.076599,250.471649 
	C395.126587,249.475403 394.296600,249.105209 393.510284,248.783524 
	C389.462036,247.127274 383.873962,249.317276 381.461609,253.505142 
	C379.181000,257.464172 380.004303,260.283661 384.396149,263.641968 
	C385.936279,264.819672 388.013885,265.598541 387.737885,268.455750 
	C387.381592,269.230072 387.030792,269.556213 386.270996,269.961182 
z"/>
<path fill="#816291" opacity="1.000000" stroke="none" 
	d="
M194.146408,273.338226 
	C195.793640,271.911957 196.678879,273.421112 197.806747,274.305023 
	C198.781158,275.068695 199.527908,276.726562 201.065002,275.873596 
	C202.423172,275.119965 202.023270,273.491333 201.956345,272.235992 
	C201.642166,266.340637 201.477692,260.417755 200.725464,254.573456 
	C200.337936,251.562759 204.135849,248.844269 201.034027,245.534668 
	C201.701233,245.135666 202.411240,245.056564 203.479462,244.961258 
	C206.273270,244.050507 208.787338,244.654358 211.678421,244.778748 
	C212.693665,245.475021 213.295105,245.948624 213.947968,246.711060 
	C214.988831,249.030609 214.323898,251.179596 214.243958,253.680267 
	C213.527054,255.024033 213.065048,256.020386 211.432831,256.005219 
	C209.371811,257.028687 207.445404,256.216522 205.327454,256.816376 
	C205.017654,257.069885 205.002136,257.001099 205.036591,256.993652 
	C203.162750,257.920563 203.501770,259.683563 203.505524,261.301483 
	C203.517029,266.248627 203.445282,271.195984 203.684387,276.549377 
	C203.475693,280.328125 201.754272,280.711548 199.398621,278.753326 
	C197.552917,277.219055 195.979935,275.356628 194.146408,273.338226 
z"/>
<path fill="#6B6D8F" opacity="1.000000" stroke="none" 
	d="
M313.637634,281.992554 
	C318.155670,281.292084 320.164215,276.830963 324.656189,276.040924 
	C323.732574,280.757263 319.712616,282.327484 315.412750,284.007599 
	C311.374725,285.052216 307.610474,284.199554 303.499298,284.705017 
	C296.370850,282.240479 291.001678,278.251465 288.987732,270.505554 
	C287.980347,266.712006 288.689514,263.217316 288.755371,259.325806 
	C289.940277,251.964844 294.389801,247.871811 300.686127,245.063232 
	C302.108063,246.431519 301.446991,247.457916 300.249329,248.711533 
	C299.983093,248.981918 299.998779,248.999390 299.989075,248.990417 
	C294.290283,255.348602 292.598846,262.641083 295.635468,270.633331 
	C298.664520,278.605530 305.394684,281.325623 313.637634,281.992554 
z"/>
<path fill="#B5748F" opacity="1.000000" stroke="none" 
	d="
M361.292877,295.468750 
	C360.105774,293.545898 359.029724,291.627930 360.587280,290.194061 
	C361.978638,288.913208 363.920258,288.400848 365.910797,290.200592 
	C366.810913,291.014404 369.614197,292.976288 369.221405,288.747650 
	C369.115509,287.607513 370.458282,286.882294 371.800171,287.089417 
	C373.093079,287.289001 373.925781,288.072418 373.947510,289.385956 
	C374.013458,293.376068 373.988098,297.367615 374.009247,301.358521 
	C374.014069,302.267914 373.652649,303.390930 372.755249,302.979218 
	C369.341614,301.413239 365.466095,304.673065 362.112579,301.493774 
	C361.019287,299.446686 361.748718,297.585144 361.292877,295.468750 
z"/>
<path fill="#A05189" opacity="1.000000" stroke="none" 
	d="
M211.768738,159.121704 
	C212.792709,164.326904 213.070038,169.351074 208.919037,173.820419 
	C205.255295,170.998123 200.550003,170.000641 196.341675,168.098572 
	C192.928970,166.556091 190.582169,164.793976 191.211884,160.919800 
	C191.873703,156.848099 194.976868,156.509964 198.779449,157.109863 
	C199.310211,157.414307 199.414856,157.630798 199.529938,158.206940 
	C198.434982,160.866699 197.272903,163.185989 200.790955,164.501770 
	C201.561096,164.789810 202.468277,165.071365 203.071228,164.358307 
	C203.786896,163.511978 203.077347,162.825760 202.438629,162.315109 
	C200.983826,161.152023 199.539810,160.026306 201.067871,157.708679 
	C202.370560,157.480698 203.349045,157.489807 204.680984,157.658569 
	C205.034302,157.775833 205.077621,157.881744 205.024734,157.903580 
	C206.669510,159.121994 208.616867,158.175201 210.747650,158.774658 
	C211.086075,158.990448 211.547180,159.051132 211.768738,159.121704 
z"/>
<path fill="#B5748F" opacity="1.000000" stroke="none" 
	d="
M384.479309,290.703857 
	C385.265869,292.433960 387.260742,291.991760 388.016632,293.576172 
	C389.442230,295.272888 389.505341,296.798645 388.336243,298.791168 
	C387.389221,303.691162 383.938354,303.002502 380.882111,303.001953 
	C378.473633,303.001526 375.773621,302.500977 375.232086,300.055450 
	C374.570496,297.067932 373.911346,293.478760 377.983887,291.276581 
	C380.076599,290.101227 382.097260,290.638397 384.479309,290.703857 
z"/>
<path fill="#BD3D7C" opacity="1.000000" stroke="none" 
	d="
M156.640442,224.096985 
	C158.268509,226.969360 156.685486,228.794632 154.470657,230.308884 
	C149.306686,233.839493 147.735001,239.582123 145.585968,244.906464 
	C144.325424,248.029495 145.400085,251.018799 146.862442,254.001999 
	C148.379044,257.095825 150.108047,260.186493 150.357941,264.129242 
	C145.671722,260.206635 143.270065,254.778885 142.104279,248.690994 
	C141.875671,247.497070 141.729568,246.445618 143.020294,245.271667 
	C143.774643,243.504730 143.339630,242.008591 143.741608,240.244812 
	C143.916565,239.922653 143.973663,239.962265 143.939407,239.968079 
	C144.209488,239.767502 144.478516,239.522842 144.863373,239.008682 
	C145.688889,234.096954 149.204437,231.389236 152.585709,228.420502 
	C153.087250,228.092468 153.311661,227.736526 153.787537,227.168213 
	C153.992844,226.926743 153.991592,226.996445 153.956787,226.994675 
	C154.203766,226.782059 154.457565,226.541992 154.824371,226.048798 
	C155.438858,225.272675 155.907715,224.715652 156.640442,224.096985 
z"/>
<path fill="#6B6D8F" opacity="1.000000" stroke="none" 
	d="
M258.700928,341.720642 
	C259.915314,342.738190 260.833282,343.479950 261.869598,344.494141 
	C246.809708,343.518311 232.506149,339.558960 219.343857,330.932800 
	C219.244644,330.309418 219.453262,329.861206 219.839783,329.238037 
	C223.642944,332.007568 228.401443,332.494476 232.680725,334.870239 
	C235.084564,333.317566 237.040054,334.485260 239.046982,335.186432 
	C241.685471,336.108276 244.337021,336.999176 247.446304,337.714233 
	C251.643341,338.176422 254.931870,340.073486 258.700928,341.720642 
z"/>
<path fill="#B5748F" opacity="1.000000" stroke="none" 
	d="
M393.199432,300.658875 
	C393.064606,303.157318 391.868774,303.220123 390.113586,302.293945 
	C388.700470,298.630920 389.028015,295.219116 389.674011,291.348389 
	C389.807495,290.897156 389.816864,290.843750 389.843903,290.845734 
	C391.276947,290.200165 392.783020,290.654510 394.564270,290.298523 
	C397.552277,289.861206 399.732208,290.555695 401.011108,293.471344 
	C402.017029,296.268890 401.306488,298.801208 401.245544,301.708557 
	C400.197266,303.499451 399.135864,303.061768 397.885559,302.186829 
	C397.251923,299.886169 397.664215,297.852875 397.232910,295.529236 
	C396.294678,295.161713 395.558838,295.113983 394.452942,295.083771 
	C392.856934,296.729340 393.834503,298.625488 393.199432,300.658875 
z"/>
<path fill="#BB366A" opacity="1.000000" stroke="none" 
	d="
M139.314697,260.402069 
	C138.989197,260.879791 138.809113,260.894745 138.359589,260.927734 
	C138.042023,246.370132 137.601334,231.781387 138.089859,217.223816 
	C138.393448,208.176315 136.752121,199.822159 133.038788,191.346893 
	C136.304886,194.435455 138.804810,198.277634 139.185425,203.605957 
	C139.773560,209.388870 139.366745,214.791595 139.499985,220.667877 
	C139.473831,234.078873 139.552551,247.009171 139.314697,260.402069 
z"/>
<path fill="#6B6D8F" opacity="1.000000" stroke="none" 
	d="
M250.656921,244.777771 
	C254.486252,245.103912 254.594833,247.910461 254.954636,250.225449 
	C255.255676,252.162338 254.984665,254.188110 254.911438,256.621094 
	C254.007309,265.155579 254.789124,273.270569 254.237305,281.782593 
	C253.554932,282.740967 253.088531,283.283722 252.369904,283.935059 
	C251.641235,284.398376 251.109558,284.532074 250.134079,284.273438 
	C248.810303,283.165283 248.756927,281.985352 249.104095,280.856903 
	C251.605240,272.727356 250.096649,264.373627 250.604324,256.135712 
	C250.844772,252.234268 248.318405,249.313187 247.755295,245.359329 
	C248.586853,244.377823 249.448471,244.524399 250.656921,244.777771 
z"/>
<path fill="#517796" opacity="1.000000" stroke="none" 
	d="
M391.823120,282.626343 
	C392.592560,283.182739 393.169586,283.457275 394.006042,283.919495 
	C394.265472,284.107239 394.238251,284.239014 394.171753,284.228821 
	C392.753632,284.706604 391.349335,284.420654 389.553833,284.499969 
	C386.371796,284.527771 383.605133,284.440125 380.462036,284.723938 
	C377.461121,285.338654 375.885864,284.072021 374.872375,281.394623 
	C374.300415,279.615814 374.547241,278.153625 374.729889,276.308716 
	C374.979462,274.526123 374.596680,273.342102 376.834778,272.754883 
	C379.915527,271.946625 382.935486,272.044800 386.436462,271.856750 
	C387.048706,271.941895 387.224426,272.097656 387.510345,272.587402 
	C387.450043,275.614105 385.309662,275.727142 383.396118,276.205475 
	C382.257355,276.490143 381.044067,276.964691 381.221802,278.433197 
	C381.388031,279.806671 382.641205,280.089111 383.777161,280.398285 
	C386.380463,281.106873 389.505280,279.713837 391.823120,282.626343 
z"/>
<path fill="#D5B3C8" opacity="1.000000" stroke="none" 
	d="
M117.077942,209.564972 
	C118.285408,210.344254 117.989456,211.904480 117.989799,213.357697 
	C117.993576,229.605362 117.963165,245.853012 117.862656,262.563599 
	C116.357918,262.071320 117.008171,260.601013 117.005753,259.387329 
	C116.972977,242.932938 117.009682,226.478439 117.077942,209.564972 
z"/>
<path fill="#B5748F" opacity="1.000000" stroke="none" 
	d="
M139.338257,260.892700 
	C139.131866,247.896408 139.094467,234.927963 139.107285,221.495178 
	C139.229004,220.787323 139.300522,220.543808 139.629822,220.580444 
	C139.918716,233.917175 139.949875,246.973740 139.914795,260.489685 
	C139.848572,260.949097 139.507248,260.920563 139.338257,260.892700 
z"/>
<path fill="#AB4E82" opacity="1.000000" stroke="none" 
	d="
M166.016144,249.981995 
	C169.972214,254.732178 173.857834,259.541870 177.905823,264.649902 
	C178.363052,265.326080 178.522110,265.756744 178.479294,266.578156 
	C178.223114,267.096741 178.054840,267.268890 177.545166,267.568115 
	C173.518082,268.045410 172.791626,264.265594 170.168549,262.517029 
	C167.764908,258.651917 164.154510,255.663910 165.563751,250.455658 
	C165.804688,250.160507 165.945679,250.041519 166.016144,249.981995 
z"/>
<path fill="#6A70A1" opacity="1.000000" stroke="none" 
	d="
M300.350616,248.909058 
	C300.282196,247.913437 300.581268,246.844955 300.962372,245.453094 
	C302.129883,244.759598 303.215363,244.389496 304.652283,243.976868 
	C306.680908,243.124451 308.453033,243.617447 310.579773,243.749023 
	C311.926056,244.062637 312.877411,244.184189 313.978424,244.641052 
	C309.578552,245.986542 305.003143,246.906967 300.350616,248.909058 
z"/>
<path fill="#905A8D" opacity="1.000000" stroke="none" 
	d="
M192.896454,280.658661 
	C191.593048,280.722565 190.157547,280.480347 188.386810,280.091400 
	C184.343307,279.323212 181.615570,275.903351 181.525269,270.508423 
	C185.633011,273.406830 189.198669,276.879669 192.896454,280.658661 
z"/>
<path fill="#AB4E82" opacity="1.000000" stroke="none" 
	d="
M160.258331,223.728821 
	C159.915405,223.909851 159.437561,223.959869 159.200134,223.996414 
	C158.656372,224.154877 158.350037,224.276810 157.562256,224.285461 
	C159.455002,220.454773 162.588425,217.489136 166.525818,214.922058 
	C166.868988,214.864349 167.019592,215.015503 167.095032,215.090973 
	C167.732346,215.751968 168.157272,216.412018 168.284668,217.627350 
	C167.160141,221.870117 164.119659,223.041061 160.258331,223.728821 
z"/>
<path fill="#905A8D" opacity="1.000000" stroke="none" 
	d="
M207.660080,202.761658 
	C208.507233,203.338516 209.034500,203.618851 209.851410,203.978790 
	C208.576675,206.644287 205.663010,207.749603 203.395996,210.074005 
	C202.795395,209.969193 202.513870,209.704987 202.040924,209.223755 
	C201.823883,205.268478 202.241379,201.902161 207.660080,202.761658 
z"/>
<path fill="#9498AD" opacity="1.000000" stroke="none" 
	d="
M254.406158,281.967712 
	C254.167358,274.057892 254.313385,265.917603 254.657669,257.422485 
	C254.834274,265.290833 254.812622,273.514038 254.406158,281.967712 
z"/>
<path fill="#6B6D8F" opacity="1.000000" stroke="none" 
	d="
M238.215668,284.126129 
	C239.138840,281.574677 241.318115,281.438110 243.711044,280.968506 
	C246.572678,279.633453 248.024963,280.459503 248.424927,283.559448 
	C247.797592,284.357269 247.247574,284.516541 246.243286,284.251678 
	C243.852463,283.511902 241.864777,282.363495 239.465744,283.969116 
	C238.877716,284.172363 238.647827,284.334290 238.215668,284.126129 
z"/>
<path fill="#9498AD" opacity="1.000000" stroke="none" 
	d="
M273.473450,308.081909 
	C266.902893,309.611389 259.832733,309.094330 252.392151,308.343384 
	C259.018921,308.120575 266.015045,308.078156 273.473450,308.081909 
z"/>
<path fill="#9498AD" opacity="1.000000" stroke="none" 
	d="
M203.907104,276.496155 
	C202.990875,270.416840 201.938889,263.870758 204.763412,257.213074 
	C202.681671,263.221039 204.578400,269.699371 203.907104,276.496155 
z"/>
<path fill="#6A70A1" opacity="1.000000" stroke="none" 
	d="
M263.459534,344.934723 
	C269.696716,343.308929 276.437500,343.953156 283.537109,344.671509 
	C277.239807,344.902191 270.581848,344.957184 263.459534,344.934723 
z"/>
<path fill="#D5B3C8" opacity="1.000000" stroke="none" 
	d="
M190.636688,249.281586 
	C190.988693,255.430344 190.942871,261.753632 190.820007,268.540405 
	C189.181091,262.523895 190.129272,255.979187 190.636688,249.281586 
z"/>
<path fill="#9498AD" opacity="1.000000" stroke="none" 
	d="
M263.965912,257.488831 
	C266.097321,262.626099 264.354340,268.472687 264.996338,274.644806 
	C262.695831,269.510803 264.655701,263.656921 263.965912,257.488831 
z"/>
<path fill="#B5748F" opacity="1.000000" stroke="none" 
	d="
M172.480560,292.036682 
	C172.943375,292.246765 172.945160,292.421692 172.942978,292.858734 
	C167.593643,293.084503 162.248245,293.048157 156.433182,292.952087 
	C161.239685,291.228638 166.666412,292.277985 172.480560,292.036682 
z"/>
<path fill="#D5B3C8" opacity="1.000000" stroke="none" 
	d="
M139.938202,220.408478 
	C139.887573,220.860611 139.527267,220.966278 139.342392,220.998550 
	C139.124985,215.657028 139.092468,210.283234 139.171448,204.453796 
	C140.924957,209.255341 139.609314,214.643341 139.938202,220.408478 
z"/>
<path fill="#D5B3C8" opacity="1.000000" stroke="none" 
	d="
M389.524658,291.045471 
	C389.838196,294.285034 389.868896,297.672943 389.932465,301.518555 
	C388.419647,301.605042 389.458191,299.990570 388.330322,299.207123 
	C388.006653,297.687592 388.011383,296.221283 388.080322,294.322632 
	C389.701721,293.476288 388.568695,291.967499 389.524658,291.045471 
z"/>
<path fill="#BB366A" opacity="1.000000" stroke="none" 
	d="
M129.922623,187.632874 
	C126.795357,187.645447 124.263741,186.063797 122.129631,183.256577 
	C124.941757,183.811798 127.760025,184.872894 129.922623,187.632874 
z"/>
<path fill="#BB366A" opacity="1.000000" stroke="none" 
	d="
M121.925400,182.628754 
	C119.365005,182.519592 116.518257,182.579651 114.077339,180.353027 
	C116.954361,179.289413 119.305168,181.025223 121.925400,182.628754 
z"/>
<path fill="#9498AD" opacity="1.000000" stroke="none" 
	d="
M398.805725,244.540115 
	C394.654419,244.900940 390.276855,244.898483 385.435364,244.868896 
	C389.431488,243.065903 394.036804,244.262802 398.805725,244.540115 
z"/>
<path fill="#B5748F" opacity="1.000000" stroke="none" 
	d="
M101.457855,184.175476 
	C101.868416,188.013641 101.928894,192.089645 101.917953,196.629303 
	C99.863922,192.967575 101.291946,188.643478 101.457855,184.175476 
z"/>
<path fill="#BD3D7C" opacity="1.000000" stroke="none" 
	d="
M150.625534,264.991211 
	C153.404343,264.082947 154.101059,266.215363 154.940765,268.619202 
	C154.829559,269.119751 154.638046,269.271332 154.133118,269.233215 
	C152.439224,268.078674 151.029617,267.137238 150.625534,264.991211 
z"/>
<path fill="#9498AD" opacity="1.000000" stroke="none" 
	d="
M303.542328,284.919128 
	C306.688171,283.385132 310.466888,284.476044 314.593262,284.041656 
	C311.521423,286.175385 307.649323,284.348602 303.542328,284.919128 
z"/>
<path fill="#9498AD" opacity="1.000000" stroke="none" 
	d="
M237.602509,283.838135 
	C238.195847,283.797882 238.378342,283.839752 238.834213,283.946045 
	C235.915390,286.274719 232.301117,284.228516 228.519440,284.928162 
	C229.340149,283.794983 230.861435,284.267548 232.655273,284.134094 
	C234.415573,284.054688 235.803604,283.987457 237.602509,283.838135 
z"/>
<path fill="#9498AD" opacity="1.000000" stroke="none" 
	d="
M288.585754,259.111206 
	C288.987427,262.328827 289.018005,265.763733 289.016388,269.667175 
	C286.972748,266.658264 288.200043,262.950226 288.585754,259.111206 
z"/>
<path fill="#905A8D" opacity="1.000000" stroke="none" 
	d="
M186.035492,305.358154 
	C187.943329,305.396179 189.266479,306.466156 189.891403,308.733948 
	C187.885880,308.846771 186.689651,307.604828 186.035492,305.358154 
z"/>
<path fill="#B5748F" opacity="1.000000" stroke="none" 
	d="
M112.278114,180.087799 
	C109.324478,180.106781 106.638702,180.086914 103.507721,180.027679 
	C106.098412,177.677612 109.468147,179.480377 112.874382,179.582336 
	C112.901474,179.987030 112.723717,180.017990 112.278114,180.087799 
z"/>
<path fill="#9498AD" opacity="1.000000" stroke="none" 
	d="
M344.988342,284.398529 
	C347.895325,284.175049 351.043060,284.317932 354.540100,284.646973 
	C351.669281,284.810394 348.449188,284.787628 344.988342,284.398529 
z"/>
<path fill="#9498AD" opacity="1.000000" stroke="none" 
	d="
M390.646759,256.927002 
	C393.140381,255.445190 396.308380,256.466827 399.775665,255.980621 
	C397.369904,258.142426 394.107849,256.489960 390.646759,256.927002 
z"/>
<path fill="#9498AD" opacity="1.000000" stroke="none" 
	d="
M264.600037,235.027481 
	C264.835724,237.652817 265.401062,240.535614 264.211731,243.648468 
	C264.055847,241.061844 264.139557,238.151581 264.600037,235.027481 
z"/>
<path fill="#9498AD" opacity="1.000000" stroke="none" 
	d="
M380.531097,284.964325 
	C382.676819,283.231903 385.523163,284.407471 388.727386,284.512329 
	C386.467285,284.917114 383.722595,284.975281 380.531097,284.964325 
z"/>
<path fill="#905A8D" opacity="1.000000" stroke="none" 
	d="
M178.084000,267.325195 
	C178.090103,266.489227 178.080261,266.048737 178.069305,265.278229 
	C179.742081,266.052155 181.378403,267.190338 182.033356,269.594604 
	C182.067337,269.933990 181.983932,270.007233 181.942078,270.043701 
	C179.387939,271.299286 178.645248,269.644348 178.084000,267.325195 
z"/>
<path fill="#D5B3C8" opacity="1.000000" stroke="none" 
	d="
M283.700134,307.420319 
	C281.244568,307.802155 278.544861,307.879181 275.394653,307.938599 
	C277.627686,306.027802 280.616455,307.359894 283.700134,307.420319 
z"/>
<path fill="#9498AD" opacity="1.000000" stroke="none" 
	d="
M331.578979,260.080566 
	C331.978882,262.659668 332.004608,265.433899 332.006714,268.671021 
	C330.018219,266.331085 331.115570,263.259094 331.578979,260.080566 
z"/>
<path fill="#D5B3C8" opacity="1.000000" stroke="none" 
	d="
M277.950684,243.424454 
	C276.332367,241.663528 277.260223,239.190018 277.188263,236.426971 
	C278.828369,238.211304 277.661804,240.684601 277.950684,243.424454 
z"/>
<path fill="#B5748F" opacity="1.000000" stroke="none" 
	d="
M146.426819,292.975708 
	C148.334213,291.423828 150.789505,292.051758 153.562958,292.678650 
	C151.547729,292.915314 149.205444,292.985107 146.426819,292.975708 
z"/>
<path fill="#D5B3C8" opacity="1.000000" stroke="none" 
	d="
M236.639938,243.563995 
	C234.790268,244.089874 232.802124,244.254272 230.469437,244.544098 
	C230.124878,244.669540 230.123260,244.303650 230.018524,244.153961 
	C231.911270,242.106659 234.275177,243.219879 236.639938,243.563995 
z"/>
<path fill="#D5B3C8" opacity="1.000000" stroke="none" 
	d="
M401.420715,301.947815 
	C401.014587,299.676880 400.988098,297.219330 400.984009,294.300476 
	C403.189636,296.287537 401.710907,299.102936 401.420715,301.947815 
z"/>
<path fill="#D5B3C8" opacity="1.000000" stroke="none" 
	d="
M371.948395,267.217407 
	C370.406219,266.291779 371.396332,264.509277 370.990723,262.613892 
	C370.606171,261.865692 370.474548,261.420624 370.744385,260.620117 
	C370.953674,260.321503 371.173553,260.192993 371.142151,260.070129 
	C373.030365,262.031403 371.536255,264.550598 371.948395,267.217407 
z"/>
<path fill="#9498AD" opacity="1.000000" stroke="none" 
	d="
M211.887192,244.637512 
	C209.645523,245.006012 207.198853,245.010605 204.294922,244.980133 
	C206.304077,242.987000 209.045578,244.243225 211.887192,244.637512 
z"/>
<path fill="#905A8D" opacity="1.000000" stroke="none" 
	d="
M182.077728,302.348022 
	C183.657028,302.082672 185.160187,302.475616 185.891068,304.660400 
	C184.096939,305.229370 183.336334,303.647064 182.077728,302.348022 
z"/>
<path fill="#5876A3" opacity="1.000000" stroke="none" 
	d="
M387.228638,273.391602 
	C387.015381,272.912231 386.987366,272.686890 386.916168,272.123840 
	C386.706604,271.498352 386.540161,271.210541 386.249634,270.701538 
	C386.237640,270.296783 386.349762,270.113251 386.707642,269.716339 
	C387.140442,269.387787 387.327454,269.272614 387.815796,269.011597 
	C388.341095,268.832031 388.565094,268.798279 389.130920,268.803040 
	C389.688934,268.923767 389.905121,269.005920 390.406128,269.288269 
	C390.841125,269.665100 390.991302,269.841736 391.285889,270.333801 
	C391.703491,271.297333 391.852997,271.962921 391.578003,272.982971 
	C391.145905,273.642700 390.801727,273.927856 390.084351,274.242462 
	C389.337646,274.398529 388.907074,274.385529 388.188110,274.170685 
	C387.735504,273.914337 387.574646,273.779968 387.228638,273.391602 
z"/>
<path fill="#B5748F" opacity="1.000000" stroke="none" 
	d="
M153.833725,269.437866 
	C154.019653,269.027222 154.219635,269.010925 154.720337,268.981384 
	C155.021088,268.968140 155.010056,268.997406 155.020462,268.990692 
	C155.355743,269.335907 155.541885,269.750153 155.476074,270.558472 
	C153.524612,272.146545 151.573349,272.364380 149.180389,271.316467 
	C150.461319,270.458282 152.598419,271.885590 153.833725,269.437866 
z"/>
<path fill="#D5B3C8" opacity="1.000000" stroke="none" 
	d="
M384.748291,290.495422 
	C382.913574,290.893402 380.947327,290.926392 378.560669,290.938477 
	C380.105072,289.058502 382.452393,290.347382 384.748291,290.495422 
z"/>
<path fill="#816291" opacity="1.000000" stroke="none" 
	d="
M206.348267,290.991943 
	C204.868942,291.767151 203.755798,291.197205 203.084579,289.216675 
	C204.491699,288.726074 205.425095,289.561981 206.348267,290.991943 
z"/>
<path fill="#D5B3C8" opacity="1.000000" stroke="none" 
	d="
M274.017456,231.563766 
	C272.043915,232.014694 269.885132,232.088318 267.273865,232.058716 
	C268.960449,229.895355 271.455231,231.078186 274.017456,231.563766 
z"/>
<path fill="#9498AD" opacity="1.000000" stroke="none" 
	d="
M402.462891,275.835083 
	C402.078125,273.971375 402.039764,271.915161 402.000336,269.417175 
	C403.950958,270.993500 402.809875,273.387299 402.462891,275.835083 
z"/>
<path fill="#D5B3C8" opacity="1.000000" stroke="none" 
	d="
M397.031708,295.601013 
	C398.300812,297.040985 397.818756,299.097229 397.748810,301.487671 
	C396.405182,300.041809 397.291748,297.951111 397.031708,295.601013 
z"/>
<path fill="#9498AD" opacity="1.000000" stroke="none" 
	d="
M214.398849,253.912140 
	C214.071320,252.018234 214.102661,249.948090 214.066696,247.438934 
	C215.791336,249.071976 214.660522,251.473068 214.398849,253.912140 
z"/>
<path fill="#D5B3C8" opacity="1.000000" stroke="none" 
	d="
M221.821991,159.600006 
	C219.933762,159.816528 217.870163,159.669907 215.465240,159.367111 
	C217.298172,159.219574 219.472397,159.228226 221.821991,159.600006 
z"/>
<path fill="#D5B3C8" opacity="1.000000" stroke="none" 
	d="
M344.863281,290.655579 
	C343.279419,290.998077 341.547272,290.974182 339.384308,290.934937 
	C340.693359,289.058868 342.756927,290.156250 344.863281,290.655579 
z"/>
<path fill="#D5B3C8" opacity="1.000000" stroke="none" 
	d="
M361.084717,295.513367 
	C362.279846,296.722290 361.856720,298.577606 361.964020,300.747467 
	C360.182190,299.664154 361.320068,297.661407 361.084717,295.513367 
z"/>
<path fill="#D5B3C8" opacity="1.000000" stroke="none" 
	d="
M393.323242,300.803497 
	C393.307007,299.216888 392.592651,297.336304 393.853333,295.388916 
	C393.952362,296.948975 393.821838,298.796692 393.323242,300.803497 
z"/>
<path fill="#B5748F" opacity="1.000000" stroke="none" 
	d="
M210.898010,158.627441 
	C209.253662,158.916840 207.368408,159.264252 205.309296,158.116638 
	C206.884537,158.038422 208.797241,158.151443 210.898010,158.627441 
z"/>
<path fill="#D5B3C8" opacity="1.000000" stroke="none" 
	d="
M199.556091,158.043640 
	C199.346146,157.765961 199.326828,157.468933 199.266205,157.333374 
	C201.017487,157.175140 202.829391,157.152466 204.837799,157.452805 
	C203.969955,157.855469 202.905624,157.935104 201.440704,158.045502 
	C200.658295,158.380844 200.235825,158.474121 199.556091,158.043640 
z"/>
<path fill="#D5B3C8" opacity="1.000000" stroke="none" 
	d="
M205.436066,257.056763 
	C206.433670,255.148911 208.480118,256.045044 210.701019,255.946991 
	C209.717148,258.163605 207.603729,256.682861 205.436066,257.056763 
z"/>
<path fill="#D5B3C8" opacity="1.000000" stroke="none" 
	d="
M246.008606,284.424438 
	C246.320541,284.008362 246.788895,283.970703 247.610718,283.911926 
	C248.384079,283.572021 248.855194,283.448761 249.706268,283.706360 
	C250.500549,283.897278 250.966019,283.902679 251.774567,283.975830 
	C250.353287,286.020355 248.182297,284.809082 246.008606,284.424438 
z"/>
<path fill="#9498AD" opacity="1.000000" stroke="none" 
	d="
M199.879135,244.627869 
	C198.276672,244.983139 196.513229,244.976624 194.308044,244.980087 
	C195.607788,243.058289 197.729462,244.199631 199.879135,244.627869 
z"/>
<path fill="#D5B3C8" opacity="1.000000" stroke="none" 
	d="
M353.711151,243.370239 
	C352.236816,243.753204 350.547943,243.844116 348.439941,243.879028 
	C349.665802,242.249802 351.663910,243.271683 353.711151,243.370239 
z"/>
<path fill="#9498AD" opacity="1.000000" stroke="none" 
	d="
M278.480164,256.919464 
	C279.676941,255.766632 281.509033,256.211121 283.642151,256.046509 
	C282.594635,257.845764 280.595001,256.642853 278.480164,256.919464 
z"/>
<path fill="#D5B3C8" opacity="1.000000" stroke="none" 
	d="
M310.820496,243.589081 
	C309.268372,243.942001 307.562073,243.942917 305.429718,243.939087 
	C306.700012,242.149185 308.744141,243.188644 310.820496,243.589081 
z"/>
<path fill="#9498AD" opacity="1.000000" stroke="none" 
	d="
M284.859863,272.648956 
	C283.262695,272.848572 281.478607,272.691986 279.374756,272.336365 
	C280.927643,272.189148 282.800262,272.240967 284.859863,272.648956 
z"/>
<path fill="#B5748F" opacity="1.000000" stroke="none" 
	d="
M143.553970,240.078400 
	C144.340134,241.419495 144.025436,242.849884 143.367035,244.591003 
	C143.202637,243.356979 143.197006,241.795563 143.553970,240.078400 
z"/>
<path fill="#D5B3C8" opacity="1.000000" stroke="none" 
	d="
M389.584015,284.935486 
	C389.212006,284.858978 389.176575,284.541626 389.149841,284.384277 
	C390.516876,284.137573 391.910614,284.048248 393.704834,284.088806 
	C392.994476,285.907196 391.331879,284.709839 389.584015,284.935486 
z"/>
<path fill="#9498AD" opacity="1.000000" stroke="none" 
	d="
M250.864624,244.656647 
	C250.278458,245.010239 249.535080,245.021347 248.421158,245.060181 
	C247.869019,245.215561 247.687408,245.343246 247.238525,245.272308 
	C246.798996,245.053253 246.626724,245.032837 246.194611,244.998932 
	C247.304565,243.189789 249.057159,244.115829 250.864624,244.656647 
z"/>
<path fill="#9498AD" opacity="1.000000" stroke="none" 
	d="
M374.570343,276.069519 
	C374.909821,277.338867 374.906342,278.765625 374.845795,280.614624 
	C373.270081,279.588959 374.021759,277.876068 374.570343,276.069519 
z"/>
<path fill="#D5B3C8" opacity="1.000000" stroke="none" 
	d="
M227.146744,208.365356 
	C228.432098,208.031876 229.827179,208.062897 231.641022,208.062897 
	C230.671219,209.727081 228.893829,208.746643 227.146744,208.365356 
z"/>
<path fill="#D5B3C8" opacity="1.000000" stroke="none" 
	d="
M394.515808,290.084717 
	C393.614685,291.178650 392.104889,290.989929 390.245300,290.891113 
	C391.033264,289.237000 392.709900,290.287750 394.515808,290.084717 
z"/>
<path fill="#D5B3C8" opacity="1.000000" stroke="none" 
	d="
M331.849396,290.565674 
	C330.599823,290.914612 329.197144,290.923492 327.374817,290.912354 
	C328.322113,289.152527 330.083740,290.218933 331.849396,290.565674 
z"/>
<path fill="#D5B3C8" opacity="1.000000" stroke="none" 
	d="
M314.465729,290.118591 
	C313.563171,291.148438 312.072998,290.979340 310.242920,290.990173 
	C310.941193,289.196320 312.656799,290.248260 314.465729,290.118591 
z"/>
<path fill="#6A70A1" opacity="1.000000" stroke="none" 
	d="
M316.955750,245.595825 
	C316.378693,246.434113 315.716919,246.556427 315.082214,245.437195 
	C315.594971,245.251938 316.206787,245.279572 316.955750,245.595825 
z"/>
<path fill="#BB366A" opacity="1.000000" stroke="none" 
	d="
M130.979309,188.722427 
	C130.723969,188.857773 130.463913,188.659348 130.140244,188.170807 
	C130.320435,188.122772 130.619766,188.292084 130.979309,188.722427 
z"/>
<path fill="#BB366A" opacity="1.000000" stroke="none" 
	d="
M131.965790,189.726013 
	C131.714706,189.862137 131.454514,189.666626 131.134369,189.177490 
	C131.311050,189.130478 131.605148,189.300644 131.965790,189.726013 
z"/>
<path fill="#816291" opacity="1.000000" stroke="none" 
	d="
M229.057938,302.666718 
	C228.869553,302.773712 228.616806,302.602081 228.212006,302.250854 
	C228.355316,302.200226 228.666504,302.305817 229.057938,302.666718 
z"/>
<path fill="#BB366A" opacity="1.000000" stroke="none" 
	d="
M132.982269,190.711517 
	C132.722610,190.857315 132.461395,190.665298 132.137115,190.182220 
	C132.320450,190.127945 132.622681,190.288788 132.982269,190.711517 
z"/>
<path fill="#5876A3" opacity="1.000000" stroke="none" 
	d="
M385.947815,270.234436 
	C386.172760,269.839508 386.402832,269.554413 386.864868,269.584564 
	C386.936066,269.998413 386.775238,270.096985 386.369995,270.337952 
	C386.125549,270.480316 385.952942,270.344238 385.947815,270.234436 
z"/>
<path fill="#6B6D8F" opacity="1.000000" stroke="none" 
	d="
M325.243164,275.946106 
	C325.140594,275.770599 325.296692,275.546204 325.629395,275.198547 
	C325.902863,275.412292 325.801453,275.686279 325.243164,275.946106 
z"/>
<path fill="#B5748F" opacity="1.000000" stroke="none" 
	d="
M144.737152,238.878906 
	C144.817444,239.097992 144.615021,239.412720 144.158875,239.850677 
	C144.088257,239.640793 144.271347,239.307678 144.737152,238.878906 
z"/>
<path fill="#BD3D7C" opacity="1.000000" stroke="none" 
	d="
M157.094482,224.206848 
	C157.394531,224.146713 157.708221,224.121231 158.492325,224.064362 
	C158.555557,224.138397 158.148407,224.243835 157.414337,224.331207 
	C157.087448,224.313126 157.108154,224.241516 157.094482,224.206848 
z"/>
<path fill="#AB4E82" opacity="1.000000" stroke="none" 
	d="
M154.701660,225.926361 
	C154.755447,226.105591 154.540894,226.381485 154.124146,226.825150 
	C154.092407,226.669617 154.262848,226.346344 154.701660,225.926361 
z"/>
<path fill="#905A8D" opacity="1.000000" stroke="none" 
	d="
M193.939743,281.729767 
	C193.755020,281.788330 193.523285,281.576141 193.171478,281.150696 
	C193.307526,281.137848 193.587967,281.311707 193.939743,281.729767 
z"/>
<path fill="#AB4E82" opacity="1.000000" stroke="none" 
	d="
M153.653687,227.041229 
	C153.729767,227.257568 153.466705,227.588394 153.056274,228.198349 
	C153.044113,228.036896 153.179306,227.596313 153.653687,227.041229 
z"/>
<path fill="#C83677" opacity="1.000000" stroke="none" 
	d="
M160.282410,224.007324 
	C162.036224,221.982361 164.157059,220.054871 166.581268,217.998627 
	C171.425934,215.758743 175.302078,218.059113 175.983505,223.063828 
	C176.481186,226.718994 174.357681,229.801819 174.100494,233.642944 
	C173.546738,234.899979 173.019669,235.783112 172.239105,236.854370 
	C171.563828,237.478043 170.967377,237.481857 170.242737,237.864838 
	C168.702911,239.737839 167.282333,241.354279 166.047134,243.101761 
	C164.609985,245.134949 162.959305,247.239807 165.532654,249.958389 
	C166.308014,254.407532 169.716843,257.000916 171.831512,260.719147 
	C173.264221,266.561096 176.375336,272.008972 172.692810,277.815491 
	C171.667603,279.431976 172.146378,281.287689 172.679169,283.070129 
	C173.463303,285.693390 173.541977,288.260193 171.211670,290.692047 
	C169.884293,290.935913 168.820099,290.933258 167.355835,290.906158 
	C164.992935,285.508820 167.315826,279.066864 162.814484,274.295471 
	C162.473297,273.933838 162.376816,272.799377 162.669846,272.464264 
	C166.044113,268.605927 163.053864,264.688019 163.099319,260.796112 
	C163.189011,253.116440 158.922226,245.113937 164.416489,237.694016 
	C165.340912,236.445572 164.716034,234.807312 163.972946,233.435303 
	C163.321320,232.232178 162.635574,230.670837 163.627136,229.692596 
	C169.143021,224.250702 163.109909,225.164993 160.282410,224.007324 
z"/>
<path fill="#BD3D7C" opacity="1.000000" stroke="none" 
	d="
M155.552643,270.809052 
	C155.280396,270.468536 155.197830,270.046906 155.073059,269.304626 
	C155.845505,269.329712 156.805298,269.616241 155.552643,270.809052 
z"/>
<path fill="#000000" opacity="1.000000" stroke="none" 
	d="
M315.044800,298.887329 
	C313.379761,296.994781 313.794525,295.327087 315.566956,294.258972 
	C316.532867,293.676849 317.495880,294.656189 317.776276,295.605957 
	C318.354248,297.563843 317.546478,298.759277 315.044800,298.887329 
z"/>
<path fill="#000000" opacity="1.000000" stroke="none" 
	d="
M350.377991,297.688721 
	C350.272125,295.493896 351.443634,294.714813 353.101715,295.222717 
	C354.562012,295.670074 354.212555,297.371735 353.781677,298.133148 
	C352.912354,299.669128 351.649597,299.023743 350.377991,297.688721 
z"/>
<path fill="#000000" opacity="1.000000" stroke="none" 
	d="
M330.681030,295.102295 
	C332.591248,297.141449 330.945587,298.082550 329.614685,298.869904 
	C328.890564,299.298279 328.155487,298.761780 328.035858,297.715179 
	C327.838562,295.988922 328.222931,294.846680 330.681030,295.102295 
z"/>
<path fill="#000000" opacity="1.000000" stroke="none" 
	d="
M280.885651,296.810394 
	C280.211548,297.986603 279.711060,299.581329 278.434601,298.495605 
	C277.675781,297.850159 277.558258,296.224304 278.526764,295.450836 
	C279.474304,294.694153 280.674408,294.709686 280.885651,296.810394 
z"/>
<path fill="#000000" opacity="1.000000" stroke="none" 
	d="
M294.092163,295.605682 
	C292.550934,296.064911 292.215973,298.451660 290.046234,297.463531 
	C290.622131,294.964783 292.174561,294.662048 294.092163,295.605682 
z"/>
<path fill="#000000" opacity="1.000000" stroke="none" 
	d="
M229.915833,257.311188 
	C233.388779,257.244965 237.098267,255.901825 239.819092,258.846893 
	C242.064331,261.277161 242.658981,264.011414 241.214645,267.331543 
	C239.332840,271.657288 235.890808,272.173035 231.524261,271.982422 
	C229.341293,270.891541 228.059494,269.389221 227.002716,267.236206 
	C226.238770,265.574982 226.568726,264.164948 226.727051,262.400208 
	C227.860092,260.549957 228.817947,259.080963 229.915833,257.311188 
z"/>
<path fill="#9498AD" opacity="1.000000" stroke="none" 
	d="
M226.688629,262.275421 
	C226.938690,263.382294 226.975128,264.745605 226.939468,266.510376 
	C225.762283,265.539093 225.904465,264.054657 226.688629,262.275421 
z"/>
<path fill="#A05189" opacity="1.000000" stroke="none" 
	d="
M207.998566,203.030457 
	C205.058075,203.760086 203.364975,205.823257 201.976013,208.685120 
	C200.962723,203.325409 197.482376,197.768661 200.817215,191.881287 
	C202.000336,189.792587 201.815094,187.804474 201.071121,185.333893 
	C202.419617,183.211914 203.586121,180.592957 206.460098,181.938080 
	C209.685867,183.447861 210.005127,186.845886 209.582062,189.675507 
	C209.108307,192.844070 209.706512,195.544968 210.982025,198.676422 
	C211.087082,199.041626 211.052505,199.048309 211.041077,199.059540 
	C209.891434,199.989883 208.964935,201.072662 208.235809,202.697845 
	C208.053238,202.946564 208.017166,203.002747 207.998566,203.030457 
z"/>
<path fill="#6A70A1" opacity="1.000000" stroke="none" 
	d="
M313.718994,281.791748 
	C305.140869,284.880646 297.278931,281.643982 293.701080,272.817810 
	C291.119202,266.448517 290.258698,259.706329 294.093536,253.224197 
	C295.328156,251.137314 296.688995,249.398087 299.619141,249.018845 
	C299.938934,251.227875 300.369446,253.271683 302.693054,254.824005 
	C303.034637,258.770752 300.426422,261.845642 300.475311,265.674957 
	C300.521637,269.301666 301.586884,271.417236 305.893738,271.085266 
	C306.732941,270.991547 307.212097,271.054779 308.015930,271.348083 
	C309.426056,272.107513 310.627930,272.494904 311.746246,273.694092 
	C310.972382,276.819183 308.677734,279.898041 313.718994,281.791748 
z"/>
<path fill="#6B6D8F" opacity="1.000000" stroke="none" 
	d="
M312.210358,273.768677 
	C310.834076,273.784607 309.702850,273.573944 308.285370,273.165527 
	C307.171967,270.750153 309.088440,270.267731 310.280396,269.268555 
	C314.029663,266.125671 314.020325,263.695648 310.013062,259.899109 
	C308.875763,259.565552 308.042358,259.463623 306.904877,259.870026 
	C303.052338,262.467316 302.891174,265.487854 305.269440,268.817780 
	C306.058655,269.922821 306.765961,270.955566 306.180420,272.680725 
	C302.037354,273.413269 298.874359,270.935425 298.838074,267.144836 
	C298.797516,262.909393 299.435455,258.824707 302.792419,255.314194 
	C309.172333,253.210510 314.684845,254.952362 316.898712,259.422363 
	C319.263458,264.197021 317.543671,269.662140 312.210358,273.768677 
z"/>
<path fill="#BD3D7C" opacity="1.000000" stroke="none" 
	d="
M174.347473,233.834778 
	C172.127563,232.042999 171.355881,230.452591 172.750351,227.220978 
	C174.878479,222.289139 173.839737,219.667892 167.254669,217.933838 
	C166.946991,217.192719 167.009338,216.515579 167.121063,215.502441 
	C173.361115,213.112061 176.732803,207.579849 181.084290,203.392960 
	C183.776550,200.802567 187.127167,199.376495 189.739990,196.856339 
	C190.385147,196.234085 191.267059,196.137085 191.994095,196.786942 
	C192.765259,197.476227 192.625702,198.409210 192.001022,198.999191 
	C189.956146,200.930466 190.999069,202.355698 191.936432,204.573578 
	C193.365311,207.954468 193.072144,211.499969 190.956863,215.233383 
	C186.771713,222.619980 181.127762,228.456787 174.347473,233.834778 
z"/>
<path fill="#BD3D7C" opacity="1.000000" stroke="none" 
	d="
M170.308411,237.984344 
	C170.508102,237.765213 170.974701,237.466980 171.713455,237.105621 
	C171.515518,237.330078 171.045425,237.617661 170.308411,237.984344 
z"/>
<path fill="#6A70A1" opacity="1.000000" stroke="none" 
	d="
M275.131042,253.728180 
	C273.953949,259.696655 275.075989,265.299286 275.382843,270.892029 
	C275.557739,274.079742 278.879272,274.498657 281.119354,275.818939 
	C282.447510,276.601776 284.708740,276.839111 284.429382,279.016571 
	C284.124176,281.395447 281.932709,281.975800 279.990234,282.421295 
	C275.161804,283.528687 268.505402,279.077545 267.491302,274.195557 
	C266.600342,269.906586 266.992249,265.564331 267.044861,261.252991 
	C267.084808,257.976898 266.243683,255.594315 263.253479,253.777634 
	C259.359589,251.411911 259.438507,249.114319 263.403687,247.167297 
	C265.431152,246.171783 266.007507,244.822647 265.999786,242.856720 
	C265.990601,240.506897 266.151794,238.162201 267.314331,236.066986 
	C268.485779,233.955795 270.538177,233.473648 272.455231,234.513000 
	C274.788666,235.778152 273.190796,237.147842 272.104736,238.469727 
	C270.458160,240.473770 271.134796,242.161713 273.126404,243.477310 
	C274.246002,244.216888 275.384216,244.911774 275.924255,246.622635 
	C278.059845,249.386856 276.281586,251.341736 275.131042,253.728180 
z"/>
<path fill="#5876A3" opacity="1.000000" stroke="none" 
	d="
M275.459595,254.058441 
	C273.288422,251.707687 274.754944,249.677872 275.867371,247.275330 
	C279.111359,247.525665 284.224304,245.386765 284.231689,250.542755 
	C284.238190,255.095917 279.250183,253.272736 276.368500,254.031982 
	C276.213806,254.072739 276.040619,254.043274 275.459595,254.058441 
z"/>
<path fill="#6A70A1" opacity="1.000000" stroke="none" 
	d="
M247.301331,339.679138 
	C242.361038,338.987335 237.807983,337.712433 233.332245,335.150391 
	C230.739365,327.559540 233.960617,320.014191 232.470245,312.448700 
	C231.838867,309.243652 234.616013,307.109619 238.756256,307.977173 
	C240.844040,308.310944 242.579788,308.629181 244.696411,308.987610 
	C249.066299,312.491760 250.798569,316.184692 247.906982,321.507355 
	C246.363083,324.349335 246.816467,327.882996 248.206390,331.110718 
	C249.401901,333.887085 250.070572,336.806946 247.301331,339.679138 
z"/>
<path fill="#AB4E82" opacity="1.000000" stroke="none" 
	d="
M178.061813,266.954590 
	C179.180740,267.890991 180.261536,268.852264 181.621277,269.946838 
	C182.260315,274.146973 186.442978,275.867218 187.843567,279.683838 
	C187.329788,284.004089 187.481857,288.233124 185.713898,292.088928 
	C185.034500,293.570648 185.217667,294.968719 185.933975,296.390778 
	C186.607361,297.727631 187.493057,299.331390 185.747055,300.343079 
	C183.849594,301.442505 182.726517,299.866119 181.687607,298.527039 
	C179.734116,296.009094 177.548447,293.761139 174.307220,292.245300 
	C173.850723,291.781738 173.636246,291.531586 173.214783,291.137207 
	C172.231613,287.234711 175.823257,285.093872 176.405289,281.664307 
	C176.874725,278.898224 177.828247,276.555664 176.459625,273.734222 
	C175.469254,271.692535 175.246475,269.277374 177.640244,267.228882 
	C177.947464,267.029297 178.023682,266.979462 178.061813,266.954590 
z"/>
<path fill="#BD3D7C" opacity="1.000000" stroke="none" 
	d="
M177.711258,266.800903 
	C177.965729,269.686340 178.049515,272.294830 179.698822,274.613525 
	C180.957184,276.382599 181.112152,278.415924 179.790207,280.184021 
	C177.363037,283.430359 179.116348,289.188721 173.294388,290.748230 
	C172.566910,290.971985 172.104752,290.969238 171.295532,290.952515 
	C171.090012,287.943604 171.054535,284.988098 169.711319,282.184723 
	C169.368103,281.468414 168.959625,280.171967 169.288651,279.837006 
	C173.983719,275.057312 168.965332,268.635040 172.091858,263.616333 
	C172.379227,263.155060 172.068573,262.321167 172.023590,261.332642 
	C173.832733,262.860809 175.653885,264.716644 177.711258,266.800903 
z"/>
<path fill="#905A8D" opacity="1.000000" stroke="none" 
	d="
M208.323105,202.783218 
	C208.085709,201.246597 208.511429,199.791000 210.698166,199.147247 
	C210.732315,200.607300 209.888885,201.768921 208.323105,202.783218 
z"/>
<path fill="#6A70A1" opacity="1.000000" stroke="none" 
	d="
M246.800446,245.336105 
	C247.151093,245.069366 247.330933,245.065063 247.780701,245.074326 
	C251.963364,247.604965 253.222244,251.236603 253.040497,255.781509 
	C252.807846,261.599609 252.959366,267.433685 252.973724,273.260803 
	C252.982544,276.836060 252.254745,280.196869 250.150009,283.556763 
	C249.574615,283.912170 249.114136,283.932465 248.308929,283.921783 
	C247.530731,282.198700 246.195236,281.560852 244.390930,281.016113 
	C243.765717,275.753662 245.277481,270.705811 244.659866,265.402252 
	C244.302505,262.333588 244.143921,259.637238 242.110443,257.235565 
	C237.510620,251.802887 238.082275,249.829300 244.813431,247.236603 
	C245.523773,246.962997 246.029160,246.157349 246.800446,245.336105 
z"/>
<path fill="#3D7FB1" opacity="1.000000" stroke="none" 
	d="
M370.660217,260.140839 
	C370.966705,260.748871 370.979767,261.176270 370.961365,261.928802 
	C368.140472,266.135529 368.521820,271.126984 365.440277,275.264740 
	C361.248260,280.893585 356.327515,282.948975 349.451294,282.940125 
	C346.117889,280.571716 344.681763,277.902924 347.499115,274.047180 
	C347.967133,273.497192 348.170685,273.295715 348.741821,272.885437 
	C349.612762,272.479462 350.118805,272.289642 351.004395,272.072327 
	C352.307220,272.167694 353.229858,272.331360 354.477448,272.345947 
	C355.372375,272.217438 355.889618,271.948395 356.595062,271.431213 
	C356.966553,271.139160 357.115845,271.021484 357.488464,270.722595 
	C357.999969,270.263580 358.231262,269.943481 358.538239,269.299622 
	C361.088104,263.874054 360.598877,262.220886 354.659729,256.357117 
	C353.524750,255.666534 352.712891,255.006683 351.279114,255.421387 
	C350.552246,255.481430 350.133636,255.506104 349.397522,255.568817 
	C347.976501,255.754044 346.987152,256.171570 345.802002,257.045593 
	C345.250397,257.299377 345.010315,257.369873 344.387573,257.491241 
	C341.438873,257.482697 338.950073,260.533508 336.115997,257.364563 
	C335.991699,255.612045 336.279419,254.316589 337.689209,253.173187 
	C338.672821,252.208389 339.621521,251.824951 340.769806,251.190216 
	C341.003510,250.994553 341.471191,250.969894 341.705322,250.964569 
	C342.881439,250.371994 342.944855,249.224228 343.763336,248.201996 
	C353.693726,244.017258 360.598206,246.206802 366.404663,254.981140 
	C367.570709,256.743164 369.038239,258.305695 370.660217,260.140839 
z"/>
<path fill="#487CAB" opacity="1.000000" stroke="none" 
	d="
M348.995483,273.791168 
	C348.111145,276.782562 347.744629,279.475006 348.938721,282.566376 
	C336.783173,279.718903 330.571564,268.166687 335.636902,257.250854 
	C338.671600,256.672913 341.427032,256.349976 344.594055,256.016479 
	C345.545563,256.743042 345.644958,257.631500 345.019623,258.219147 
	C341.884766,261.165100 343.159454,264.279175 344.796326,267.605225 
	C345.253265,267.884583 345.446747,267.984314 345.920532,268.262146 
	C346.371643,268.584503 346.542419,268.728729 346.931213,269.127319 
	C347.261169,269.572449 347.373108,269.763214 347.593719,270.261902 
	C347.918182,271.625519 348.570038,272.494049 348.995483,273.791168 
z"/>
<path fill="#487CAB" opacity="1.000000" stroke="none" 
	d="
M343.680054,248.112762 
	C343.902863,249.103409 343.687469,250.152252 342.243958,250.840805 
	C342.071381,249.867462 342.311401,248.833466 343.680054,248.112762 
z"/>
<path fill="#487CAB" opacity="1.000000" stroke="none" 
	d="
M340.677765,251.032623 
	C340.417816,251.905350 339.662506,252.593506 338.264923,252.906952 
	C338.383148,251.867477 339.167053,251.215836 340.677765,251.032623 
z"/>
<path fill="#3D7FB1" opacity="1.000000" stroke="none" 
	d="
M268.690430,311.277374 
	C275.631012,309.145081 282.280914,309.807739 288.778717,311.307709 
	C297.688751,313.364624 301.015564,327.285522 294.958557,335.549225 
	C291.292725,340.550537 286.368439,342.708984 280.423981,342.970398 
	C277.600342,343.094513 274.765625,342.966553 271.473145,342.943726 
	C270.060150,342.024017 269.070496,341.149384 269.029144,339.673462 
	C268.812469,331.937653 266.782135,324.412231 266.364044,316.689697 
	C266.246826,314.524689 266.455811,312.793945 268.690430,311.277374 
z"/>
<path fill="#5876A3" opacity="1.000000" stroke="none" 
	d="
M247.404556,340.008850 
	C247.129898,336.617340 247.044708,333.299805 245.187805,330.333344 
	C243.484604,327.612427 244.061646,324.557678 245.141953,322.155731 
	C247.084671,317.836182 246.987579,313.887604 245.068848,309.399475 
	C249.101196,310.476501 253.706940,308.871277 257.774475,311.684509 
	C259.695953,313.328369 260.267792,315.128235 260.349182,317.232452 
	C260.547760,322.366211 260.123383,327.520203 260.957733,332.637024 
	C261.302216,334.749695 259.660492,336.334381 259.052368,338.615234 
	C259.016418,339.761444 259.011444,340.506500 259.001892,341.623962 
	C255.062286,342.499969 251.454376,341.118134 247.404556,340.008850 
z"/>
<path fill="#5179AA" opacity="1.000000" stroke="none" 
	d="
M259.372009,339.096375 
	C257.944885,338.777924 256.291748,338.804901 256.896606,337.116211 
	C259.752930,329.141327 257.084564,320.949829 258.017090,312.441528 
	C261.403259,311.643738 264.782745,311.317810 268.587280,310.989044 
	C267.953644,317.441559 269.743195,323.679382 270.554474,329.978638 
	C271.077332,334.038483 272.021576,338.041168 271.022522,342.539856 
	C266.407532,344.205353 263.381317,340.740967 259.372009,339.096375 
z"/>
<path fill="#288AB8" opacity="1.000000" stroke="none" 
	d="
M388.737671,272.804810 
	C389.449493,273.011719 389.888977,273.004883 390.657593,272.977325 
	C391.440857,272.262238 391.039673,271.808777 390.296722,271.183655 
	C390.050262,270.985077 390.023102,270.961670 390.005341,270.959229 
	C389.827606,270.806976 389.667633,270.657166 389.267151,270.283173 
	C389.026672,270.059021 388.556793,269.930389 388.317963,269.882385 
	C387.880981,269.742401 387.682861,269.650421 387.291412,269.293854 
	C387.098114,269.029266 387.074585,268.951019 387.049927,268.917328 
	C386.360870,267.113770 384.565155,266.744537 383.209412,265.859558 
	C375.833038,261.044739 375.328308,254.264740 382.049133,248.684525 
	C386.514587,244.976913 391.600983,245.401154 396.674622,246.982620 
	C398.464539,247.540558 399.866852,248.923660 399.551086,251.125412 
	C399.274414,253.054581 397.824677,253.931595 396.088501,254.214264 
	C393.803558,254.586258 391.491486,254.812820 389.183502,255.015610 
	C387.297852,255.181259 385.385742,255.246063 385.213531,257.774628 
	C385.046661,260.224792 386.729767,260.602722 388.670135,261.096588 
	C393.761108,262.392395 398.470886,264.077484 399.466858,270.447021 
	C400.052521,274.192566 400.373596,277.278442 396.237152,279.210205 
	C394.801300,279.880768 393.743561,281.361053 392.264313,282.689880 
	C388.700317,282.839294 385.344635,283.060638 382.083313,282.605560 
	C379.660889,282.267548 376.978210,281.291473 377.213593,277.983093 
	C377.438263,274.825165 379.964020,274.132568 382.531586,273.740723 
	C383.835419,273.541718 385.163513,273.501831 386.762024,273.263794 
	C387.043427,273.137573 387.499969,273.111847 387.726990,273.084839 
	C388.124512,272.902222 388.294952,272.746643 388.737671,272.804810 
z"/>
<path fill="#000000" opacity="1.000000" stroke="none" 
	d="
M367.036774,294.130005 
	C370.141754,294.840698 368.550232,296.980743 368.831879,298.488556 
	C369.003448,299.407043 368.346985,299.951477 367.379974,299.946289 
	C366.345032,299.940735 365.987213,299.248230 366.028442,298.375977 
	C366.095154,296.964050 365.583527,295.458740 367.036774,294.130005 
z"/>
<path fill="#AB4E82" opacity="1.000000" stroke="none" 
	d="
M198.971893,157.881332 
	C199.731583,157.793121 200.117035,157.820282 200.771301,157.961868 
	C201.709686,159.759445 203.329071,159.716705 204.716797,160.221939 
	C208.018494,161.423965 207.157272,164.347580 206.734406,166.610992 
	C206.136505,169.811188 203.733658,168.266327 201.956573,167.767776 
	C200.684814,167.410995 199.474335,166.810547 198.268372,166.250214 
	C196.255859,165.315186 194.197250,164.188339 194.349197,161.631088 
	C194.492844,159.213486 196.712341,158.674622 198.971893,157.881332 
z"/>
<path fill="#000000" opacity="1.000000" stroke="none" 
	d="
M380.102844,297.821655 
	C379.973419,295.963226 380.199188,294.688477 382.120697,295.180786 
	C383.051086,295.419189 384.203125,296.226471 383.783539,297.187042 
	C383.126312,298.691559 381.921021,299.948517 380.102844,297.821655 
z"/>
<path fill="#487CAB" opacity="1.000000" stroke="none" 
	d="
M390.157227,271.236633 
	C390.794678,271.379822 393.067291,270.591522 391.223541,272.881592 
	C390.745880,272.467133 390.505066,271.977661 390.157227,271.236633 
z"/>
<path fill="#487CAB" opacity="1.000000" stroke="none" 
	d="
M387.091858,269.246887 
	C387.348114,269.166718 387.576233,269.333984 387.930786,269.682739 
	C388.079132,269.834381 387.588318,269.884979 387.342590,269.892395 
	C387.096863,269.899811 387.085602,269.464508 387.091858,269.246887 
z"/>
<path fill="#487CAB" opacity="1.000000" stroke="none" 
	d="
M389.169983,270.225891 
	C389.284363,270.207062 389.513214,270.391022 389.850403,270.783813 
	C389.741241,270.794556 389.516479,270.606567 389.169983,270.225891 
z"/>
<path fill="#517796" opacity="1.000000" stroke="none" 
	d="
M388.885254,272.943481 
	C388.834473,273.030731 388.658997,273.042938 388.218750,273.056458 
	C388.193359,272.845123 388.462189,272.781982 388.885254,272.943481 
z"/>
<path fill="#000000" opacity="1.000000" stroke="none" 
	d="
M306.341766,273.008911 
	C299.618988,266.658752 299.305267,262.986267 304.864136,257.289612 
	C306.668579,256.088287 308.424561,256.639709 310.531311,256.706055 
	C314.127045,259.173309 316.973602,261.926453 315.743042,266.207123 
	C314.763763,269.613678 312.475647,272.276031 308.187012,272.652618 
	C307.557037,272.991150 307.114960,273.014526 306.341766,273.008911 
z"/>
<path fill="#9498AD" opacity="1.000000" stroke="none" 
	d="
M310.643188,256.676727 
	C309.247528,256.897095 307.560059,256.930359 305.451599,256.966034 
	C306.721619,255.890991 308.510742,255.904022 310.643188,256.676727 
z"/>
<path fill="#000000" opacity="1.000000" stroke="none" 
	d="
M351.584900,273.400146 
	C351.175262,273.278595 350.911835,273.111938 350.852631,273.178772 
	C348.993011,273.564606 347.687958,272.675293 346.257629,271.231201 
	C346.010132,270.974670 345.995117,271.005524 346.011597,271.000610 
	C345.785767,270.783539 345.553253,270.561096 345.167603,270.150330 
	C345.004578,269.972321 344.995270,270.003754 345.009674,269.995972 
	C341.340637,265.545074 341.941956,261.313477 347.357605,256.081238 
	C349.468903,255.367615 351.224152,255.510498 353.401123,255.702850 
	C360.713013,260.130585 362.053284,264.541290 358.311157,269.938416 
	C356.726166,272.224396 354.287415,272.664673 351.584900,273.400146 
z"/>
<path fill="#517796" opacity="1.000000" stroke="none" 
	d="
M351.643616,273.444000 
	C352.783783,271.453979 355.514221,271.378967 356.993408,269.125153 
	C360.210754,264.222870 359.480103,260.789673 353.999725,257.421265 
	C353.736938,256.900299 353.624084,256.704620 353.497986,256.170319 
	C353.640594,255.393326 353.920044,255.057831 354.651428,254.908722 
	C361.663208,259.510895 362.853607,263.029633 360.055878,270.604248 
	C359.760681,271.193909 359.550171,271.428131 359.163971,271.820435 
	C358.989288,271.979431 358.977478,271.981689 358.971008,271.977417 
	C358.263672,272.718689 357.604584,273.514893 356.310516,273.958435 
	C354.708710,273.875458 353.410339,273.742432 351.643616,273.444000 
z"/>
<path fill="#517796" opacity="1.000000" stroke="none" 
	d="
M348.401611,256.762878 
	C343.942169,260.233215 342.842102,264.288239 345.002136,269.581940 
	C341.512054,268.798706 340.022339,262.782318 342.410797,259.230316 
	C343.051910,258.276947 343.892914,257.458008 344.823883,256.291656 
	C345.005615,256.005951 345.000000,256.000488 345.002869,256.003235 
	C345.709991,254.691818 346.673035,253.805099 348.644989,254.013641 
	C349.439728,254.013458 349.888000,254.012466 350.672485,254.009399 
	C351.750366,254.239304 352.169983,254.754684 352.231720,255.842941 
	C351.034576,256.743561 349.829681,256.372223 348.401611,256.762878 
z"/>
<path fill="#487CAB" opacity="1.000000" stroke="none" 
	d="
M352.183105,256.231384 
	C351.678162,255.523712 351.456879,255.017242 351.122162,254.259048 
	C352.498932,252.042984 353.798859,251.933563 354.907166,254.696014 
	C354.718567,255.293030 354.457336,255.593826 354.022766,256.138336 
	C353.391022,256.467072 352.930023,256.480530 352.183105,256.231384 
z"/>
<path fill="#517796" opacity="1.000000" stroke="none" 
	d="
M346.086456,271.297485 
	C347.720001,270.922974 348.920532,272.034363 350.525391,273.040100 
	C350.504486,273.395111 350.215546,273.544647 349.483368,273.898804 
	C347.697845,273.719696 346.578094,273.078094 346.086456,271.297485 
z"/>
<path fill="#487CAB" opacity="1.000000" stroke="none" 
	d="
M348.718323,253.834808 
	C347.859344,254.591537 346.727295,255.168655 345.300476,255.875885 
	C345.254822,253.909378 346.076172,252.650024 348.718323,253.834808 
z"/>
<path fill="#487CAB" opacity="1.000000" stroke="none" 
	d="
M356.245239,274.137329 
	C356.794189,273.383026 357.581268,272.757629 358.666443,272.052673 
	C358.610657,273.249542 358.407867,274.689362 356.245239,274.137329 
z"/>
<path fill="#487CAB" opacity="1.000000" stroke="none" 
	d="
M359.170898,271.827515 
	C359.170319,271.719269 359.376892,271.481293 359.789673,271.112152 
	C359.791046,271.220734 359.585144,271.459656 359.170898,271.827515 
z"/>
<path fill="#517796" opacity="1.000000" stroke="none" 
	d="
M345.146484,270.170044 
	C345.295410,270.146088 345.586243,270.319855 345.952576,270.744659 
	C345.747406,270.826569 345.500854,270.617249 345.146484,270.170044 
z"/>
<path fill="#9498AD" opacity="1.000000" stroke="none" 
	d="
M351.567200,256.056030 
	C352.335419,256.097687 352.771362,256.165161 353.528381,256.307373 
	C353.849396,256.382050 353.791687,256.740967 353.820740,256.918488 
	C352.211212,257.055939 350.572632,257.015869 348.526123,256.972382 
	C349.157135,256.673279 350.196075,256.377594 351.567200,256.056030 
z"/>
</svg>